<svg height="40" viewBox="35 35 310 70" xmlns="http://www.w3.org/2000/svg" xml:space="preserve">
    <title>Vermont Agency of Education</title>
    <style type="text/css"> .st0 {
        fill-rule: evenodd;
        clip-rule: evenodd;
        fill: #00853f;
    }

    .st1 {
        fill: none;
        stroke: #000000;
    } </style>
    <g> <path
            d="M150.67,74.71c-1.18,0-2.14-0.99-2.14-2.2c0-1.22,0.96-2.21,2.14-2.21c1.19,0,2.15,0.98,2.15,2.21 C152.83,73.73,151.86,74.71,150.67,74.71L150.67,74.71L150.67,74.71z M150.67,75.13c1.41,0,2.56-1.17,2.56-2.61 c0-1.46-1.15-2.62-2.56-2.62c-1.41,0-2.54,1.17-2.54,2.62C148.13,73.96,149.27,75.13,150.67,75.13L150.67,75.13L150.67,75.13z M149.81,73.5c0,0.19-0.05,0.18-0.22,0.2h-0.1v0.14h1.15V73.7l-0.13-0.01c-0.17,0-0.18-0.06-0.19-0.22v-0.9h0.11 c0.13,0,0.25-0.01,0.35,0.1c0.14,0.15,0.36,0.86,0.52,1.05c0.07,0.09,0.13,0.09,0.23,0.12h0.5V73.7c-0.12,0-0.18-0.03-0.24-0.11 c-0.08-0.12-0.18-0.33-0.23-0.46c-0.12-0.26-0.27-0.6-0.57-0.65c0.38-0.07,0.71-0.33,0.71-0.76c0-0.21-0.13-0.45-0.3-0.56 c-0.22-0.13-0.54-0.12-0.79-0.12h-1.12v0.15h0.11c0.18,0.01,0.21,0.03,0.21,0.21V73.5L149.81,73.5L149.81,73.5z M150.32,71.49 c0-0.11-0.02-0.27,0.13-0.27l0.15-0.02c0.38,0,0.6,0.19,0.6,0.59c0,0.49-0.32,0.61-0.74,0.61l-0.14-0.01V71.49L150.32,71.49 L150.32,71.49z"/>
        <g> <path
                d="M161.89,65.69l1.36,4.7l0.85,3.36h1.94l2.75-9.55l6.47-21.23c0.7-2.27,0.78-4.18,3.25-3.98v-1.55 c-1.4,0.16-2.75,0.26-4.19,0.26c-1.43,0-2.78-0.1-4.18-0.26v1.55c4.65-0.2,3.44,2.07,2.67,4.96l-1.66,6.25l-5.08,16.84l-6.04-20.4 l-1.47-5.74c-0.27-1.03-0.5-2.01,3.22-1.91v-1.55c-1.71,0.16-3.41,0.26-5.16,0.26c-1.74,0-3.44-0.1-5.15-0.26v1.55l0.73,0.05 c2.13,0.41,1.82,0.62,2.68,3.41L161.89,65.69z"/>
            <path d="M186.4,56.5c8.76-0.41,9.02-0.73,9.02,5.11h1.28V49.69h-1.28c-0.04,5.06-0.57,4.44-9.02,4.33v-9.66 c0-1.81,0.04-3,0.2-4.28c1.27-0.26,3.1-0.26,4.8-0.26c1.94,0,3.91,0.1,5.77,0.88c0.27,1.6,0.5,3.05,0.54,5.06h1.2 c0-1.09,0.11-1.96,0.11-3.05c0.04-1.65,0.2-3.31,0.62-5.01c-1.32-0.26-3.99-0.2-6.43-0.26c-2.32,0.16-4.69,0.26-7.09,0.26 c-2.4,0-4.72-0.1-7.08-0.26v1.55c3.72,0.26,3.68,0.62,3.68,4.65v23.71c0,3.46-1.4,4.54-3.33,4.64v1.55 c2.37-0.15,4.65-0.26,7.01-0.26c2.36,0,4.69,0.11,6.97,0.26c2.4-0.05,5,0,6.43-0.26V69c0-1.65,0.23-3.1,0.38-4.18h-1.27 l-0.35,2.84c-0.08,0.93-0.27,1.86-0.46,2.64c-2.02,0.77-4.15,0.87-6.24,0.87c-1.86,0-3.84,0-5.27-0.25 c-0.16-1.35-0.2-2.59-0.2-4.45V56.5z"/>
            <path d="M205.29,67.35c0,4.03,0.04,4.39-3.67,4.64v1.55c1.74-0.15,3.56-0.26,5.46-0.26c1.9,0,3.72,0.11,5.58,0.26v-1.55 c-3.72-0.26-3.68-0.62-3.68-4.64V43.64c0-1.6,0-2.68,0.23-3.56c1.05-0.42,2.52-0.68,3.88-0.68c2.86,0,5.96,1.65,5.96,7.23 c0,3.82-2.33,6.61-5.04,7.23c-1.16,0.26-2.36,0.31-3.56,0.2l-0.16,0.78l9.22,15.8c0.54,0.88,0.97,1.81,1.59,2.89 c0.89-0.15,1.74-0.26,2.63-0.26s1.79,0.11,2.63,0.26v-1.55c-0.77-0.16-1.58-0.46-2.2-1.45l-8.8-15.28 c3.76-0.98,7.55-4.34,7.55-9.97c0-4.34-2.48-8.21-7.83-7.86c-2.24,0.16-4.49,0.26-6.78,0.26c-2.28,0-4.53-0.1-6.7-0.26v1.55 c3.71,0.26,3.67,0.62,3.67,4.65V67.35z"/>
            <path d="M253.75,43.64v23.71c0,4.03,0.04,4.39-3.68,4.64v1.55c1.74-0.15,3.56-0.26,5.46-0.26c1.9,0,3.72,0.11,5.58,0.26v-1.55 c-3.72-0.26-3.68-0.62-3.68-4.64V42.5c0-3,0.7-3.46,3.02-3.51h0.58v-1.55c-1.2,0.16-2.44,0.26-3.68,0.26 c-1.24,0-2.48-0.1-3.68-0.26c-0.5,2.28-1.24,4.5-2.09,6.87l-7.99,21.9l-10.22-28.77c-1.2,0.16-2.45,0.26-3.68,0.26 c-1.24,0-2.48-0.1-3.68-0.26v1.55l0.62,0.05c2.37,0,3.06,0.46,3.06,3.46v25.98c0,3-0.7,3.46-3.06,3.46l-0.62,0.05v1.55 c1.55-0.15,3.1-0.26,4.65-0.26c1.55,0,3.1,0.11,4.61,0.26v-1.55l-0.62-0.05c-2.44,0-3.18-0.46-3.18-3.46V43.64l10.81,30.32h0.78 L253.75,43.64z"/>
            <path d="M276.24,36.67c-8.98-0.16-14.56,8.11-14.56,18.64c0,11.78,5.89,19.01,13.75,19.01c8.48,0,14.99-8.88,14.99-19.98 C290.42,42.87,284.53,36.67,276.24,36.67z M276.67,72.1c-7.67,0-10.85-9.45-10.85-18.49c0-8.47,3.06-14.72,9.8-14.72 c7.2,0,10.65,6.82,10.65,17.04C286.27,65.43,283.14,71.53,276.67,72.1z"/>
            <path d="M297.66,37.44c-1.12,0.16-2.21,0.26-3.33,0.26c-1.16,0-2.24-0.1-3.37-0.26v1.55h0.54c2.17,0.05,2.79,0.52,2.79,3.51v25.98 c0,3-0.69,3.46-3.06,3.46l-0.62,0.05v1.55c1.55-0.15,3.1-0.26,4.65-0.26c1.54,0,3.09,0.11,4.6,0.26v-1.55l-0.62-0.05 c-2.44,0-3.17-0.46-3.17-3.46V43.27l18.71,30.32l3.06,0.72l-0.12-1.91V42.5c0-3,0.74-3.46,3.18-3.46l0.62-0.05v-1.55 c-1.51,0.16-3.06,0.26-4.61,0.26c-1.54,0-3.1-0.1-4.64-0.26v1.55l0.62,0.05c2.36,0,3.06,0.46,3.06,3.46v25.67L297.66,37.44z"/>
            <path d="M331.58,67.35c0,4.03,0.03,4.39-3.68,4.64v1.55c1.74-0.15,3.56-0.26,5.46-0.26c1.9,0,3.72,0.11,5.58,0.26v-1.55 c-3.72-0.26-3.68-0.62-3.68-4.64V45.24c0.04-1.96,0.04-3.61,0.15-5.16l6.05,0.26c0.81,0.05,1.28,0.21,1.36,1.55 c0.15,1.24,0.38,2.58,0.42,3.98h1.17c0-0.97,0-1.91,0.04-2.89c0.03-1.8,0.07-3.62,0.19-5.53c-3.76,0.16-7.44,0.26-11.2,0.26 c-3.8,0-7.47-0.1-11.15-0.26c0.12,1.91,0.16,3.72,0.2,5.53c0.03,0.98,0.03,1.92,0.03,2.89h1.17c0.03-1.39,0.27-2.74,0.43-3.98 c0.08-1.34,0.55-1.5,1.35-1.55l5.97-0.26c0.12,1.55,0.12,3.2,0.16,5.16V67.35z"/> </g>
        <path class="st0"
              d="M112.71,37.82c0.11,0.03,0.43,0.2,0.46,0.26l0.21,0.57l0.21,0.41l0.36,0.26l0.26,0.46l0.21,0.36l0.1,0.88 l-0.1,0.83v0.47c0.07,0.08-0.08,0.49-0.11,0.62c-0.24,0.02-0.35,0.11-0.47,0.26l-0.26,0.47l-0.57,0.25l-0.51,0.26l-0.21,0.47 c-0.13,0.02-0.3,0.07-0.36,0.15l-0.31,0.41l-0.62,0.52c-0.37,0.12-0.51,0.28-0.77,0.36c-0.29,0.09-0.69-0.04-0.93,0.11l-0.36,0.41 l-0.42,0.52l-0.57,0.05l-0.41-0.05l-0.57,0.2c-0.16,0.17-0.27,0.11-0.41,0.15l-0.72,0.06h-1.19l-0.67-0.21l-1.04-0.1l-0.36-0.26 l-0.41-0.21l-0.36-0.36l-0.41-0.26c-0.14-0.13-0.29-0.26-0.52-0.31c-0.06-0.23-0.19-0.18-0.26-0.41c-0.16-0.03-0.44-0.17-0.57-0.26 l-0.41-0.41l-0.16-0.57l-0.11-0.36l0.16-0.36l-0.21-0.47l0.05-0.67l-0.1-0.57l0.15-0.57c0.32-0.41,0.58-0.45,0.62-0.51l0.16-0.47 c0.08-0.2,0.07-0.35,0.31-0.42l0.41-0.26c0.4-0.5,0.49-0.66,0.72-0.72c0.24-0.33,0.48-0.39,0.52-0.72l0.52-0.15l0.62-0.42 l0.41-0.57l0.46-0.05l0.52-0.25l0.41-0.26c0.41-0.23,0.61-0.07,0.77-0.15c0.17-0.19,0.79-0.26,0.93-0.2 c0.32,0.32,0.45,0.31,0.52,0.36l0.36,0.16c0.43-0.13,0.45-0.04,0.52-0.05l0.51-0.05l0.72-0.05h0.78l0.67,0.11l0.36,0.15l0.46,0.25 l0.62,0.52C112.61,37.5,112.67,37.62,112.71,37.82z M105.9,38.7l-0.98,0.15l-0.41,0.1l-1.24,0.15l-0.1,0.47 c-0.27,0.21-0.36,0.24-0.41,0.31c-0.17,0-0.23,0.02-0.36,0.05c-0.01,0.38-0.18,0.3-0.26,0.57c-0.23,0.05-0.29,0.1-0.62,0.11 c-0.07,0.13-0.1,0.18-0.11,0.41c-0.13,0.02-0.23,0.08-0.42,0.05l-0.51,0.36l-0.16,0.72l-0.21,0.47c-0.14,0.29,0.03,0.51,0.11,0.67 l0.05,0.36l0.56,0.51c0.33,0.09,0.32,0.25,0.37,0.31l0.41,0.21l0.72,0.31l0.62,0.15l1.14,0.26h0.62l0.36,0.05l0.52,0.05l0.57-0.15 l0.72-0.15l0.41-0.31l0.52-0.15c0.38-0.16,0.46-0.27,0.62-0.31l0.26-0.57c0.41-0.15,0.7-0.23,0.88-0.36 c0.25-0.21,0.31-0.17,0.41-0.2c0.12-0.3,0.21-0.8,0.41-0.93l0.31-0.36c-0.08-0.15-0.11-0.44-0.05-0.57 c0.05-0.09,0.23-0.09,0.16-0.36l-0.1-0.51c-0.39-0.29-0.2-0.34-0.31-0.52l-0.36-0.31l-0.77-0.31l-0.42-0.26l-0.36-0.1l-0.56-0.05 L106,38.8L105.9,38.7z M47.15,63.38c0.09-0.32,0.41-0.16,0.47-0.62c-0.75,0.32-0.59,0.47-0.68,0.62c-0.2,0.13-0.4,0.08-0.51,0.15 L45.6,64.1c-0.36,0.17-0.7,0.46-0.72,0.98h0.47c0.53-0.41,0.66-0.4,0.72-0.47l0.83-0.93L47.15,63.38z M120.77,60.64 c-0.12,0.18-0.27,0.14-0.31,0.41c0.23,0.14,0.16,0.21,0.57,0.21l0.41-0.11l1.08,0.21l-0.36-0.37l-0.41-0.05l-0.42-0.16 L120.77,60.64z M52.73,60.8 M121.91,60.54l-0.11-0.37l-0.1,0.42L121.91,60.54z M50.66,59.71c-0.12,0.29-0.09,0.36-0.15,0.42 l-0.78,0.31l-0.41,0.52c-0.1,0.27-0.2,0.41-0.42,0.46c0.09,0.31,0.08,0.33,0.21,0.36l0.41-0.2l0.57-0.46 c0.55-0.62,0.58-0.64,0.67-0.72l0.36-0.21c0.3-0.27,0.48-0.28,0.52-0.67l-0.36,0.05l-0.36,0.05L50.66,59.71z M57.12,58.63 l0.41,0.41l0.42-0.05l-0.36-0.26C57.35,58.52,57.21,58.61,57.12,58.63z M72.79,56.57c-0.12-0.01-0.24-0.06-0.34,0.05 c0.15,0.13,0.01,0.15,0.34,0.15V56.57z M107.14,55.17 M61.19,54.61 M109,54.14l0.46,0.47c-0.14,0.21-0.26,0.25-0.46,0.26 c-0.09-0.2,0.06-0.37,0.05-0.47L109,54.14z M110.39,53.93c0.22,0,0.32,0.04,0.47,0.11l0.26,0.41c-0.2,0.1-0.43,0.04-0.56,0.11 c-0.34,0.24-0.76,0.14-0.83,0c0.19-0.27,0.57-0.34,0.62-0.42L110.39,53.93z M112.46,53.73l0.51,0.51 c-0.08,0.31-0.49,0.26-0.77,0.26c-0.15-0.26-0.03-0.42,0-0.57L112.46,53.73z M80.6,45.16l0.68,0.11l0.36,0.2l0.41,0.05l0.72,0.47 l0.52,0.26l0.36,0.1l0.62,0.57l0.47,0.11l0.2,0.36l0.37,0.1l0.15,0.37l0.62,0.21l0.98,0.26l0.88,0.31 c0.05,0.13,0.12,0.21,0.16,0.36l0.77-0.06l0.36,0.16c0.51,0.31,0.6,0.5,0.77,0.57l0.47,0.05l0.46,0.1l0.67,0.41l0.77,0.26 l0.41,0.41l0.46,0.15l0.41,0.21l0.93,0.26l0.62,0.47l0.83,0.26l0.62,0.21l0.41,0.41l0.57,0.62L98,53.57l0.37,0.05 c0.16,0.1,0.29,0.03,0.41,0.11l0.37,0.2l0.82,0.42l0.36,0.21l0.36,0.31l0.67,0.21c0.11,0.1,0.29,0.13,0.36,0.21l0.56,0.21 l0.77,0.21c0-0.18-0.03-0.48,0.05-0.57c0.05-0.21,0.15-0.22,0.41-0.21l0.67,0.31l0.36,0.16l0.67,0.31c0.39,0.37,0.34,0.5,0.57,0.57 l0.46,0.1h0.52l0.36-0.26l0.42-0.1l0.61-0.26l1.13-0.31c0.11-0.03,0.45-0.15,0.62-0.1l0.46,0.05l0.67,0.2 c0.51-0.51,1.22-0.74,1.29-0.72c0.09,0.08,0.24,0.13,0.36,0.1l0.73-0.05l0.67,0.36c0.23,0.2,0.29,0.2,0.42,0.21l0.46-0.47 c0.09-0.03,0.26-0.14,0.42-0.11l0.51,0.05l0.42,0.05c0.18,0.05,0.24,0.1,0.52,0.1c-0.34-0.29-0.36-0.21-0.36-0.21l-0.83-0.31 l-0.83-0.11l-0.36-0.15l-0.52-0.05l0.52-0.31l0.57,0.05l1.08,0.2l0.51,0.21l0.78,0.11l0.67,0.46h0.67l0.51,0.21l0.36,0.2l0.47,0.16 l0.46,0.21c0.28,0.25,0.44,0.24,0.51,0.57l0.72,0.21l0.62,0.26l0.36,0.16l0.36,0.16l0.36,0.21l0.62,0.52l0.57,0.46l0.46,0.16 l0.72,0.52c0.91,0.21,1.2,0.31,1.29,0.67c0.16,0.03,0.23,0.08,0.41,0.1c0.23,0.22,0.24,0.25,0.26,0.37 c0.23,0.03,0.71,0.04,0.88,0.15l0.31,0.36l0.41,0.16l0.57,0.25l0.36,0.15l0.46,0.26l0.42,0.26l0.36,0.26l0.57,0.46l0.42,0.21 l0.36,0.16c0.45,0.36,0.68,0.21,0.78,0.57c0.63,0.24,0.9,0.51,1.29,0.62l0.67,0.52l0.57,0.36l0.41,0.26l0.62,0.67l0.77,0.47 l0.57,0.61l0.36,0.16l0.62,0.52l0.57,0.46l0.31,0.57l0.37,0.11l0.36,0.2c0.34,0.42,0.17,0.59,0.26,0.72 c0.22,0.2,0.15,0.03,0.36,0.11l0.41,0.15l0.36,0.41c0.23,0.39,0.34,0.57,0.36,0.88l0.72,0.56l0.15,0.37l0.36,0.31l0.36,0.36 c0.35,0.36,0.57,0.62,0.62,0.82c0.14,0.17,0.22,0.24,0.26,0.41c-0.62-0.09-0.64-0.08-0.67-0.2c-0.38-0.16-0.54-0.08-0.67-0.16 l-0.41-0.26l-0.41-0.31l-0.16-0.37l-0.72-0.67l-0.46-0.62l-0.36-0.31c-0.14-0.1-0.3-0.14-0.41-0.26c-0.42-0.47-0.33-0.52-0.36-0.62 c-0.2-0.29-0.32-0.39-0.47-0.46c-0.53-0.35-0.53-0.39-0.57-0.42c-0.46-0.31-0.46-0.45-0.62-0.51l-0.67-0.21l-0.31-0.41 c-0.49-0.47-0.5-0.45-0.52-0.45l-0.1-0.33c-0.2,0-0.25-0.01-0.36-0.1l-0.51-0.11c-0.44-0.31-0.49-0.15-0.62-0.21l-0.36-0.16 l-0.36-0.15c-0.26-0.29-0.22-0.34-0.26-0.36l-0.51-0.1l-0.57-0.15l-0.47-0.16l-0.62-0.36c-0.19-0.23-0.06-0.42-0.46-0.46 c-0.25,0.15-0.32,0.12-0.46,0.05l-0.98-0.72h-0.36c-0.1-0.09-0.57-0.11-0.78-0.1l-0.46,0.1c-0.13-0.39-0.01-0.59-0.57-0.57 l-0.57-0.51l-0.36-0.21c-0.2-0.23-0.32-0.32-0.51-0.42l-0.47-0.05l-0.36-0.26l-0.62-0.11l-0.77-0.05l-0.98-0.57 c-0.35-0.11-0.58,0.09-0.62,0.11h-0.47c-0.12,0.03-0.42,0.17-0.62,0.1l-0.41-0.16l-1.04-0.05h-0.72l-0.41-0.05l-0.37,0.16 l0.11,0.46l-0.41,0.05h-0.46c-0.12-0.1-0.2-0.09-0.36-0.1c-0.06,0.1-0.18,0.24-0.21,0.36c-0.2,0.45-0.33,0.66-0.72,0.67 c-0.36,0.28-0.53,0.51-0.67,0.57l-0.67,0.41c-0.54,0.36-0.51,0.21-0.52,0.62c0.12,0.13,0.16,0.57,0.16,0.83 c-0.6,0.12-0.72,0.19-0.72,0.21c-0.07,0.43-0.27,0.42-0.47,0.41c-0.1-0.14-0.31-0.18-0.52-0.2l-0.36-0.05l-0.62-0.16l-0.98-0.51 l-0.41-0.06l-0.62-0.25l-0.67-0.31l-0.41-0.36L109.62,64c-0.22-0.16-0.3-0.19-0.36-0.26c-0.19-0.25-0.23-0.35-0.52-0.36l-1.6-0.21 l-0.36-0.15l-0.88-0.31l-0.36-0.31l-0.46-0.21l-0.67-0.66l-0.41-0.06l-0.67-0.26l-0.36-0.2l-0.98-0.26 c-0.47-0.3-0.9-0.35-0.98-0.67l-1.08-0.21c-0.24-0.1-0.39-0.1-0.52-0.2l-0.36-0.31L98,59.04l-0.41-0.26l-0.67-0.41l-0.56-0.41 l-0.62-0.21l-0.72-0.51l-0.93-0.16l-0.62-0.36l-0.36-0.1l-0.57-0.26l-0.36-0.26l-0.67-0.52l-0.46-0.16l-0.52-0.1 c-0.26-0.23-0.5-0.25-0.57-0.52c-0.2-0.05-0.34-0.2-0.46-0.31c-0.47-0.3-0.55-0.52-0.57-0.61c-0.23,0-0.58,0.04-0.72-0.05 l-0.47-0.26c-0.15-0.18-0.22-0.23-0.36-0.26c-0.17-0.26-0.1-0.4-0.41-0.46l-0.36-0.31l-0.36-0.46l-0.47-0.57l-0.31-0.36l-0.52-0.62 l-0.41-0.26l-0.16-0.52l-0.41-0.26c-0.22-0.31-0.26-0.43-0.31-0.46c-0.27-0.09-0.49-0.53-0.52-0.62c-0.45-0.35-0.75-0.36-0.98-0.36 c-0.04,0.23-0.24,0.45-0.41,0.57h-0.46H80.4c-0.14,0.24-0.03,0.43,0,0.46l0.2,0.52l-0.67-0.15l-0.62-0.1l0.52,0.46l0.62,0.47 c-0.37,0.68-0.8,0.43-1.19,0.41c-0.16,0.11-0.33,0.11-0.62,0.1c-0.08,0.16-0.1,0.09-0.11,0.36c0.3,0.23,0.07,0.54,0.05,0.93 l-0.26,0.62c-0.39,0.16-0.49,0.21-0.67,0.31l-0.47,0.21c-0.35,0.28-0.42,0.33-0.56,0.36c-0.03,0.13-0.05,0.19-0.05,0.36 c0.11,0.24,0.04,0.28-0.05,0.36c-0.48,0.31-0.82,0.35-1.08,0.36l-0.36,0.11l-0.36-0.26c-0.12-0.06-0.3-0.03-0.41-0.1 c-0.1,0.43-0.09,0.36,0,0.47c0.13,0.11,0.05,0.27,0.11,0.41c0.17,0.33,0.13,0.27,0.1,0.31l-0.37,0.16 c-0.44,0.28-0.38,0.14-0.51,0.31c0.1,0.49-0.09,0.65-0.2,0.77l-0.21,0.36c-0.03,0.05-0.35,0.23-0.42,0.26l-0.51,0.21 c-0.34,0.26-0.51,0.19-0.62,0.26l-0.31,0.37l-0.73,0.15c-0.22,0.23-0.48,0.3-0.67,0.31l-0.51,0.36l-0.83,0.05 c-0.16-0.1-0.3-0.02-0.41,0c-0.42,0.51-0.63,0.24-0.83,0.52c-0.15,0.18,0.03,0.33-0.31,0.41l-0.62,0.47l-0.31,0.62 c-0.28,0.22-0.36,0.24-0.41,0.31c-0.18-0.01-0.38-0.16-0.52-0.1c-0.31,0.21-0.57,0.01-0.77,0.2l0.05,0.52l-0.1,0.36h-0.83 l-0.62,0.46c-0.47,0.6-0.49,0.61-0.51,0.72l-1.03,0.05c-0.27,0.16-0.39,0.25-0.52,0.31l0.36,0.26c0.19,0.16,0.3,0.17,0.31,0.46 l-0.36,0.16c-0.02-0.14-0.05-0.23-0.05-0.41h-0.36l-0.62,0.26l-0.36,0.21c-0.33,0.19-0.39,0.03-0.46,0.31 c-0.12,0.13,0.01,0.32,0.05,0.46l0.21,0.36l-0.73-0.05h-0.41c-0.53,0.25-0.53,0.4-0.57,0.46c-0.23,0.2-0.28,0.26-0.51,0.31 c-0.26,0.24-0.2,0.25-0.26,0.36l-0.62,0.42c-0.39,0.23-0.52,0.15-0.78,0.15l0.16,0.41l-0.62,0.52c-0.58,0.41-0.68,0.46-0.88,0.47 c-0.13-0.17-0.16-0.24-0.36-0.26l-0.67,0.41l-0.52,0.26l-0.05,0.51l-0.31,0.36c-0.19,0.15-0.28,0.14-0.31,0.36 c0.27,0.29,0.24,0.35,0.21,0.52l-0.36,0.05c-0.02-0.12-0.05-0.19-0.05-0.36c-0.18-0.07-0.51-0.05-0.78-0.05 c-0.11,0.19-0.31,0.36-0.56,0.41c-0.44,0.38-0.6,0.63-0.62,0.67c-0.32,0.39-0.4,0.44-0.52,0.41c-0.13-0.04-0.37-0.27-0.57-0.21 l-0.36,0.21l-0.47-0.05v0.36c-0.09,0.03-0.51,0.11-0.57,0.11l-0.36,0.05l-0.77,0.11h-0.36l-0.26,0.37 c-0.33,0.15-0.47,0.08-0.57,0.15c-0.28,0.3-0.52,0.09-0.72,0.15l-1.09,0.1h-0.41l-0.62,0.05c-0.35,0.11-0.54,0.16-0.83,0.11 c-0.11-0.23-0.24-0.4-0.36-0.32l-0.46-0.2l-0.72-0.05c-0.25-0.28-0.17-0.41-0.26-0.47l-0.62,0.06l-0.46-0.36 c-0.05-0.16-0.29-0.24-0.36-0.26l-0.88,0.11l-0.36-0.26l-0.36-0.26c-0.43-0.32-0.57-0.09-0.67-0.41c0.14-0.47,0.19-0.26,0.46-0.36 l0.62-0.21l0.26-0.47l0.46-0.62l0.67-0.52c0.08-0.06,0.09-0.27,0.15-0.36l0.21-0.36c0.34-0.22,0.34-0.4,0.62-0.47l0.72-0.62 l0.47-0.62c0.25-0.21,0.4-0.37,0.57-0.46l0.93-0.31c-0.06-0.33-0.09-0.4-0.11-0.57l0.62-0.41c0.25-0.03,0.37,0,0.62-0.05l0.41-0.62 c0.41-0.34,0.35-0.22,0.47-0.36l0.67-0.72c0.11-0.24,0.12-0.24,0.15-0.36l0.93,0.1l0.05-0.72l0.78-0.57l0.31-0.46l0.36-0.16 c0.27-0.26,0.5-0.25,0.78-0.25v-0.41l0.57-0.31c0.27-0.29,0.3-0.35,0.51-0.37c0.08-0.25,0.24-0.39,0.31-0.41l0.52-0.05l-0.05-0.42 c0.19-0.04,0.29-0.14,0.42-0.26l0.57-0.31l0.52-0.57l0.26-0.36c0.21-0.35,0.34-0.25,0.41-0.51l0.78-0.16 c0.05-0.22,0.2-0.22,0.26-0.46l0.36-0.15c0.54-0.22,0.69-0.2,0.88-0.2c0.01-0.39,0.13-0.25,0.21-0.52 c0.37-0.21,0.55-0.17,0.62-0.26l0.36-0.47l0.41-0.21l0.36-0.51l0.72-0.31c0.53-0.66,0.45-0.55,0.62-0.62l0.83-0.26l0.42-0.77 c0.23,0,0.35,0,0.47-0.1l1.34-0.67l0.41-0.26l0.62-0.26c0.26-0.34,0.2-0.41,0.26-0.46l0.36-0.11c0.37-0.14,0.53-0.25,0.72-0.2 c0.2,0.11,0.31-0.02,0.41,0.05c0.31,0.27,0.35,0.2,0.36,0.47l-0.61-0.05l-0.16,0.46c-0.08,0.1-0.19,0.14-0.36,0.15l-0.57,0.21 c-0.43,0.41-0.57,0.35-0.67,0.41l-0.42,0.46l-0.36,0.26c-0.17,0.21-0.25,0.28-0.46,0.31c-0.26-0.15-0.36-0.15-0.52-0.15l-0.77,0.26 v0.36c-0.22,0.12-0.39,0.3-0.67,0.36v0.47c-0.09,0.26-0.42,0.35-0.83,0.31l-0.57,0.72c-0.18,0.04-0.28,0.14-0.41,0.21l-0.57,0.05 l-0.11,0.41c-0.12,0.28-0.39,0.22-0.72,0.21c-0.23,0.29-0.22,0.29-0.21,0.41c-0.55,0.68-0.91,0.79-1.08,0.83l-0.1,0.46 c-0.51,0.23-0.63,0.11-0.77,0.26l-0.57,0.47l-0.26,0.36c-0.32,0.25-0.4,0.37-0.57,0.41l0.46,0.16c0.37-0.02,0.46-0.08,0.57-0.11 l0.41-0.46l0.37-0.15l0.98-0.05c-0.21-0.32-0.31-0.44-0.31-0.78l0.57-0.15c0.55-0.57,0.47-0.62,0.83-0.62 c0.06,0.06,0.35,0.09,0.46,0.1l0.05-0.46c0.17-0.12,0.43,0,0.62-0.05c0.25-0.08,0.33-0.2,0.67-0.21c-0.06-0.23-0.19-0.19-0.21-0.51 l0.72-0.57l0.73-0.57h0.51c0.09-0.33,0.2-0.16,0.47-0.26c0.26-0.29,0.28-0.38,0.31-0.51c0.12-0.08,0.27-0.39,0.31-0.41l0.72-0.31 c0.14-0.26,0.26-0.3,0.31-0.36h0.47c0.31-0.33,0.4-0.36,0.47-0.41c0.44-0.26,0.49-0.32,0.67-0.36c0.06-0.24,0.44-0.42,0.82-0.31 c0.48-0.11,0.49-0.2,0.83-0.21l-0.05-0.41l0.36-0.15l0.26-0.52l0.36-0.05l0.46-0.21c0.32-0.32,0.51-0.27,0.62-0.36 c0.56-0.25,0.57-0.51,1.08-0.52l0.52-0.42l0.46-0.1l0.36-0.26l0.72-0.26l0.57-0.46l0.98-0.31l0.41-0.11l1.39-0.11v-0.36 c0.23-0.13,0.33-0.35,0.67-0.36l-0.52-0.2l-1.55,0.15L71,47.02c-0.25,0.31-0.65,0.38-0.93,0.46c-0.35,0.1-0.59-0.11-0.88,0 l-0.36,0.16l-0.62,0.67c-0.19,0.1-0.23-0.06-0.46,0l-0.67-0.05c-0.02,0.23-0.17,0.69-0.31,0.77l-0.47,0.11 c-0.26,0.24-0.39,0.3-0.67,0.31l-0.62,0.42l-0.37,0.05l-0.72-0.05c-0.1-0.31-0.03-0.27,0-0.52c0.42-0.16,0.64-0.34,0.87-0.42h0.36 l0.36,0.31c0.28-0.13,0.38-0.19,0.52-0.25c-0.04-0.1-0.05-0.2-0.05-0.36c0.28-0.3,0.33-0.37,0.41-0.46l0.31-0.52 c0.22-0.11,0.52-0.14,0.67-0.1l0.93-0.21l0.46-0.26l0.36-0.26l0.67-0.36l0.72-0.26c0.25-0.19,0.34-0.34,0.72-0.36l0.62-0.26 c0.44-0.26,0.82-0.01,0.93,0.05l0.62-0.36l0.36-0.36h0.46l0.67-0.15c0.2-0.13,0.32-0.19,0.46-0.31c0.22-0.18,0.39-0.02,0.46,0 l0.72-0.11l0.36-0.15l0.98-0.05c0.44,0.19,0.54,0.09,0.62,0.05c0.24-0.15,0.64,0.02,0.78,0.05c0.22,0.1,0.38,0.09,0.73,0.1 c0.14,0.2,0.39,0.1,0.46,0.36L80.6,45.16z"/> </g>
    <g> <path
            d="M210.66,91.28h2.21l2.86,10h-2.25l-0.5-2.07h-2.82l-0.49,2.07h-2.02L210.66,91.28z M212.57,97.5l-1.01-4.1l-0.97,4.1 H212.57z"/>
        <path d="M219.92,95.95h3.47v5.33h-0.93l-0.29-1.14c-0.54,0.86-1.34,1.3-2.42,1.3c-1.14,0-2.04-0.45-2.71-1.34 c-0.67-0.9-1-2.1-1-3.61c0-1.65,0.33-2.95,0.99-3.91c0.66-0.96,1.63-1.44,2.91-1.44c2.05,0,3.19,1.14,3.44,3.43l-1.98,0.32 c-0.14-1.31-0.61-1.96-1.42-1.96c-0.49,0-0.89,0.24-1.18,0.73c-0.3,0.48-0.44,1.4-0.44,2.75c0,1.2,0.14,2.04,0.43,2.53 s0.71,0.73,1.27,0.73c0.89,0,1.34-0.66,1.35-1.98h-1.49V95.95z"/>
        <path d="M225.11,91.28h6.08V93h-3.88v2.32h3.02v1.71h-3.02v2.46h3.88v1.79h-6.08V91.28z"/>
        <path d="M232.18,91.28h2.44l2.57,6.21v-6.21h1.7v10h-1.96l-3.05-7.24v7.24h-1.7V91.28z"/>
        <path d="M245.56,97.64l2.03,0.12c-0.07,1.08-0.42,1.97-1.03,2.65c-0.62,0.68-1.43,1.02-2.44,1.02c-1.23,0-2.17-0.46-2.81-1.37 s-0.97-2.17-0.97-3.77c0-1.62,0.32-2.88,0.96-3.79s1.59-1.37,2.85-1.37c2.08,0,3.22,1.29,3.41,3.87l-2.01,0.15 c-0.05-1.48-0.52-2.23-1.39-2.23c-0.46,0-0.82,0.24-1.1,0.72c-0.27,0.48-0.41,1.41-0.41,2.78c0,1.23,0.13,2.08,0.37,2.54 c0.25,0.46,0.62,0.69,1.12,0.69C244.94,99.65,245.41,98.98,245.56,97.64z"/>
        <path d="M247.5,91.28h2.42l1.41,3.64l1.51-3.64h2.15l-2.78,5.77v4.23h-2.2v-4.23L247.5,91.28z"/>
        <path d="M265.21,96.28c0,3.44-1.21,5.16-3.63,5.16c-1.2,0-2.11-0.44-2.72-1.31c-0.61-0.88-0.92-2.16-0.92-3.84 c0-3.43,1.21-5.15,3.63-5.15c1.18,0,2.08,0.43,2.7,1.29S265.21,94.56,265.21,96.28z M262.9,96.28c0-1.35-0.1-2.24-0.31-2.69 c-0.21-0.45-0.54-0.67-1-0.67c-0.45,0-0.79,0.22-1,0.67s-0.31,1.35-0.31,2.69c0,1.32,0.1,2.21,0.31,2.67c0.21,0.46,0.54,0.7,1,0.7 c0.46,0,0.79-0.22,1-0.67C262.79,98.54,262.9,97.64,262.9,96.28z"/>
        <path d="M266.75,91.28h5.93V93h-3.73v2.61h2.88v1.71h-2.88v3.96h-2.2V91.28z"/>
        <path d="M276.19,91.28h6.08V93h-3.88v2.32h3.02v1.71h-3.02v2.46h3.88v1.79h-6.08V91.28z"/>
        <path d="M283.34,91.28h2.37c1.03,0,1.86,0.14,2.5,0.41c0.64,0.28,1.16,0.79,1.54,1.53s0.58,1.75,0.58,3.01 c0,0.9-0.12,1.7-0.35,2.39c-0.23,0.7-0.54,1.24-0.92,1.64s-0.81,0.67-1.29,0.81c-0.48,0.14-1.08,0.21-1.79,0.21h-2.63V91.28z M285.54,93v6.57h0.37c0.51,0,0.9-0.1,1.18-0.29c0.28-0.2,0.5-0.54,0.67-1.02c0.17-0.49,0.25-1.19,0.25-2.11 c0-0.85-0.09-1.51-0.28-1.96s-0.41-0.77-0.69-0.94c-0.28-0.16-0.65-0.25-1.13-0.25H285.54z"/>
        <path d="M291.77,91.28h2.2V97c0,0.81,0.04,1.37,0.11,1.68s0.23,0.56,0.46,0.72c0.23,0.16,0.52,0.25,0.85,0.25 c0.37,0,0.66-0.09,0.87-0.27s0.35-0.42,0.4-0.72s0.07-0.85,0.07-1.66v-5.71h1.84v5.63c0,1.12-0.07,1.96-0.19,2.51 c-0.13,0.55-0.46,1.03-0.99,1.42c-0.53,0.4-1.26,0.59-2.19,0.59c-0.87,0-1.55-0.15-2.05-0.44c-0.5-0.29-0.85-0.7-1.06-1.22 s-0.31-1.45-0.31-2.78V91.28z"/>
        <path d="M305.32,97.64l2.03,0.12c-0.07,1.08-0.42,1.97-1.03,2.65c-0.62,0.68-1.43,1.02-2.44,1.02c-1.23,0-2.17-0.46-2.81-1.37 s-0.97-2.17-0.97-3.77c0-1.62,0.32-2.88,0.96-3.79s1.59-1.37,2.85-1.37c2.08,0,3.22,1.29,3.41,3.87l-2.01,0.15 c-0.05-1.48-0.52-2.23-1.39-2.23c-0.46,0-0.82,0.24-1.1,0.72c-0.27,0.48-0.41,1.41-0.41,2.78c0,1.23,0.13,2.08,0.37,2.54 c0.25,0.46,0.62,0.69,1.12,0.69C304.71,99.65,305.18,98.98,305.32,97.64z"/>
        <path d="M310.52,91.28h2.21l2.86,10h-2.25l-0.5-2.07h-2.82l-0.49,2.07h-2.02L310.52,91.28z M312.43,97.5l-1.01-4.1l-0.97,4.1 H312.43z"/>
        <path d="M315.03,91.28h6.23v1.88h-2.04v8.12h-2.2v-8.12h-1.99V91.28z"/>
        <path d="M322.03,91.28h2.2v10h-2.2V91.28z"/>
        <path d="M333.01,96.28c0,3.44-1.21,5.16-3.63,5.16c-1.2,0-2.11-0.44-2.72-1.31c-0.61-0.88-0.92-2.16-0.92-3.84 c0-3.43,1.21-5.15,3.63-5.15c1.18,0,2.08,0.43,2.7,1.29S333.01,94.56,333.01,96.28z M330.7,96.28c0-1.35-0.1-2.24-0.31-2.69 c-0.21-0.45-0.54-0.67-1-0.67c-0.45,0-0.79,0.22-1,0.67s-0.31,1.35-0.31,2.69c0,1.32,0.1,2.21,0.31,2.67c0.21,0.46,0.54,0.7,1,0.7 c0.46,0,0.79-0.22,1-0.67C330.59,98.54,330.7,97.64,330.7,96.28z"/>
        <path d="M334.46,91.28h2.44l2.57,6.21v-6.21h1.7v10h-1.96l-3.05-7.24v7.24h-1.7V91.28z"/> </g>
    <line class="st1" x1="36" y1="82.27" x2="341.91" y2="82.27"/>
</svg>